<svg xmlns="http://www.w3.org/2000/svg" viewBox="0 0 1200 630" role="img" aria-label="MBD Solutions logo light background">
  <defs>
    <linearGradient id="bg" x1="0%" y1="0%" x2="100%" y2="100%">
      <stop offset="0%" stop-color="#ffffff"/>
      <stop offset="50%" stop-color="#f8fafc"/>
      <stop offset="100%" stop-color="#eff6ff"/>
    </linearGradient>
    <linearGradient id="gold" x1="0%" y1="0%" x2="100%" y2="100%">
      <stop offset="0%" stop-color="#fde68a"/>
      <stop offset="35%" stop-color="#fbbf24"/>
      <stop offset="70%" stop-color="#d97706"/>
      <stop offset="100%" stop-color="#92400e"/>
    </linearGradient>
    <linearGradient id="blueRing" x1="0%" y1="0%" x2="100%" y2="100%">
      <stop offset="0%" stop-color="#1e3a8a"/>
      <stop offset="50%" stop-color="#1d4ed8"/>
      <stop offset="100%" stop-color="#0f172a"/>
    </linearGradient>
    <linearGradient id="blueInner" x1="50%" y1="0%" x2="50%" y2="100%">
      <stop offset="0%" stop-color="#1e40af"/>
      <stop offset="100%" stop-color="#0b1f4a"/>
    </linearGradient>
  </defs>
  <rect width="1200" height="630" fill="url(#bg)"/>
  <g transform="translate(600,250)">
    <circle cx="0" cy="0" r="118" fill="url(#blueRing)"/>
    <circle cx="0" cy="0" r="104" fill="none" stroke="url(#gold)" stroke-width="5"/>
    <circle cx="0" cy="0" r="92" fill="url(#blueInner)"/>
    <path d="M-58 42 V-38 h18 l24 48 24-48 h18 v80 h-16 V-2 l-22 44 h-12 l-22-44 v46 z" fill="url(#gold)"/>
    <path d="M-2 -38 h30 c20 0 32 10 32 26 0 12-6 20-16 24 10 4 18 14 18 28 0 18-14 30-36 30 h-26 z m14 16 v30 h14 c10 0 16-6 16-16 0-10-6-14-16-14 z m0 44 v34 h16 c14 0 22-8 22-18 0-12-8-16-22-16 z" fill="url(#gold)"/>
    <path d="M58 -38 h26 c28 0 44 18 44 44 s-16 44-44 44 h-26 z m14 16 v56 h10 c20 0 30-12 30-28 s-10-28-30-28 z" fill="url(#gold)"/>
    <path d="M86 -72 l18 18-18 18 v-12 h-24 v-12 h24 z" fill="#fbbf24"/>
  </g>
  <text x="600" y="420" text-anchor="middle" font-family="Outfit, Segoe UI, sans-serif" font-size="64" font-weight="800" fill="#0f172a">MBD <tspan fill="url(#gold)">Solutions</tspan></text>
  <text x="600" y="462" text-anchor="middle" font-family="DM Sans, Segoe UI, sans-serif" font-size="20" fill="#64748b">Mon Bai Dhakad Solutions</text>
  <text x="600" y="520" text-anchor="middle" font-family="DM Sans, Segoe UI, sans-serif" font-size="24" fill="#b45309">Complete Digital Solutions for Every Business</text>
</svg>
