<svg xmlns="http://www.w3.org/2000/svg" viewBox="0 0 1200 420" role="img" aria-label="MBD Solutions - Complete Digital Solutions for Every Business">
  <defs>
    <linearGradient id="gold" x1="0%" y1="0%" x2="100%" y2="100%">
      <stop offset="0%" stop-color="#fde68a"/>
      <stop offset="35%" stop-color="#fbbf24"/>
      <stop offset="70%" stop-color="#d97706"/>
      <stop offset="100%" stop-color="#92400e"/>
    </linearGradient>
    <linearGradient id="goldText" x1="0%" y1="0%" x2="100%" y2="0%">
      <stop offset="0%" stop-color="#fbbf24"/>
      <stop offset="100%" stop-color="#fde68a"/>
    </linearGradient>
    <linearGradient id="blueRing" x1="0%" y1="0%" x2="100%" y2="100%">
      <stop offset="0%" stop-color="#1e3a8a"/>
      <stop offset="50%" stop-color="#1d4ed8"/>
      <stop offset="100%" stop-color="#0f172a"/>
    </linearGradient>
    <linearGradient id="blueInner" x1="50%" y1="0%" x2="50%" y2="100%">
      <stop offset="0%" stop-color="#1e40af"/>
      <stop offset="100%" stop-color="#0b1f4a"/>
    </linearGradient>
    <filter id="glow" x="-20%" y="-20%" width="140%" height="140%">
      <feDropShadow dx="0" dy="4" stdDeviation="8" flood-color="#fbbf24" flood-opacity="0.3"/>
      <feDropShadow dx="0" dy="10" stdDeviation="14" flood-color="#1d4ed8" flood-opacity="0.35"/>
    </filter>
  </defs>
  <g transform="translate(30,30)">
    <circle cx="180" cy="180" r="168" fill="url(#blueRing)" filter="url(#glow)"/>
    <circle cx="180" cy="180" r="148" fill="none" stroke="url(#gold)" stroke-width="6"/>
    <circle cx="180" cy="180" r="132" fill="url(#blueInner)"/>
    <g stroke="#60a5fa" stroke-width="1.8" opacity="0.5">
      <line x1="180" y1="36" x2="230" y2="66"/>
      <line x1="230" y1="66" x2="290" y2="58"/>
      <line x1="180" y1="36" x2="130" y2="66"/>
      <line x1="130" y1="66" x2="72" y2="58"/>
    </g>
    <g fill="#93c5fd">
      <circle cx="180" cy="36" r="5"/>
      <circle cx="230" cy="66" r="4"/>
      <circle cx="290" cy="58" r="4"/>
      <circle cx="130" cy="66" r="4"/>
      <circle cx="72" cy="58" r="4"/>
    </g>
    <path d="M84 250 V118 h26 l34 68 34-68 h26 v132 h-22 V168 l-32 64 h-18 l-32-64 v82 z" fill="url(#gold)"/>
    <path d="M176 118 h44 c28 0 44 14 44 36 0 16-8 28-22 34 16 6 26 20 26 38 0 26-20 44-54 44 h-38 z m22 22 v42 h20 c16 0 26-8 26-22 0-14-10-20-26-20 z m0 64 v48 h22 c20 0 30-10 30-24 0-16-10-24-30-24 z" fill="url(#gold)"/>
    <path d="M278 118 h38 c40 0 64 26 64 64 s-24 64-64 64 h-38 z m22 22 v84 h14 c28 0 42-18 42-42 s-14-42-42-42 z" fill="url(#gold)"/>
    <path d="M322 72 l24 24-24 24 v-16 h-34 v-16 h34 z" fill="#fbbf24" stroke="#fde68a" stroke-width="2"/>
  </g>
  <text x="400" y="150" font-family="Outfit, Segoe UI, sans-serif" font-size="72" font-weight="800" fill="#f8fafc">MBD <tspan fill="url(#goldText)">Solutions</tspan></text>
  <text x="402" y="198" font-family="DM Sans, Segoe UI, sans-serif" font-size="22" font-weight="500" fill="#94a3b8" letter-spacing="0.04em">Mon Bai Dhakad Solutions</text>
  <rect x="400" y="220" width="760" height="2" fill="url(#gold)" opacity="0.6"/>
  <text x="400" y="268" font-family="DM Sans, Segoe UI, sans-serif" font-size="26" font-weight="500" fill="url(#goldText)">Complete Digital Solutions for Every Business</text>
</svg>
